<?xml version="1.0" encoding="utf-8"?>
<svg version="1.1" id="Layer_1" xmlns="http://www.w3.org/2000/svg" xmlns:xlink="http://www.w3.org/1999/xlink" x="0px" y="0px"
	 viewBox="0 0 1111.813 1639.744" enable-background="new 0 0 1111.813 1639.744" xml:space="preserve">
<g>
	<path fill="#DDAD85" stroke="#DDAD85" stroke-width="0.5" d="M441.5,35.774c8.618-9.315,21.041-15.189,33.807-15.242
		c-5.713,5.574-8.886,13.12-11.287,20.591c-6.067,19.058-8.436,39.017-10.751,58.804c-4.138,38.738-5.349,77.701-6.667,116.61
		c-0.161,20.73-1.093,41.439-1.168,62.169c-0.107,32.167-1.029,64.302-1.061,96.47c-0.118,17.129-0.096,34.268-0.74,51.397
		c-0.547,42.758-1.522,85.536-4.052,128.23c-8.457,3.987-17.343,6.957-26.004,10.451c-7.675,2.776-15.049,6.421-22.971,8.489
		c2.079-5.777,5.499-10.976,9.39-15.692c2.733-3.366,6.71-5.413,9.54-8.661c1.276-3.226,1.018-6.785,1.115-10.183
		c-0.15-18.597,0.386-37.184,0.761-55.781c0.397-9.722-0.375-19.487,0.622-29.187c0.729,5.874,0.3,11.791,0.632,17.675
		c1.072-5.038,0.397-10.215,0.793-15.317c0.407-7.267,0.686-14.588-0.579-21.781c-0.279-18.458,0.525-36.905,0.75-55.352
		c-0.257-18.244,1.404-36.444,1.093-54.688c0.622-21.427,1.072-42.854,1.361-64.292c-0.107-6.817,1.201-13.559,0.975-20.377
		c-0.204-26.465,1.072-52.908,0.954-79.384c1.136-17.354,1.297-34.761,1.383-52.158c0.44-9.893,0.086-19.916,2.23-29.648
		C424.789,63.322,430.277,47.469,441.5,35.774z"/>
	<path fill="#F7D5A7" stroke="#F7D5A7" stroke-width="0.5" d="M475.307,20.532c9.69-0.054,19.358-0.622,29.048-0.632
		c20.484-0.729,38.749,12.959,48.803,29.991c8.275,14.374,11.962,31.128,11.63,47.645c-0.74,65.042-0.986,130.073-1.511,195.105
		c0.172,9.186-0.622,18.383,0.032,27.558c-0.847,25.447-0.086,50.925-0.75,76.383c-0.172,15.296-0.15,30.592-0.407,45.888
		c-0.772,12.209-0.204,24.45-0.45,36.68c-0.075,25.018-0.139,50.057-0.343,75.075c-0.247,3.987,3.88,5.949,6.024,8.747
		c3.216,2.915,4.695,7.492,7.953,10.183c9.958-2.219,20.034-4.127,29.927-6.71c9.561-1.393,18.94-3.709,28.491-5.177
		c2.519-26.937,2.38-54.012,3.248-81.035c0.547-57.528-0.354-115.056,0.386-172.584c0.632-25.779,1.544-51.558,3.827-77.24
		c2.036-22.392,5.091-44.773,11.008-66.5c3.709-12.841,8.564-25.5,16.357-36.455c10.333-0.568,20.709-0.322,31.053-0.129
		c11.405,1.865,20.837,9.358,27.451,18.533c11.094,19.498,13.945,42.168,16.025,64.131c1.854,27.151,2.723,54.366,3.119,81.57
		c1.222,55.02,0.729,110.051,0.74,165.07c-0.493,53.251-1.351,106.503-2.851,159.732c-0.021,14.288-1.093,28.544-1.383,42.822
		c-0.096,15.703-2.251,31.406-0.729,47.099c5.831,76.393,1.351,153.012-1.361,229.416c-0.075,18.64-1.661,37.302-0.493,55.92
		c-1.061,6.11-3.795,11.855-4.084,18.115c-0.697,8.747,2.326,18.147,9.315,23.775c4.213,3.323,9.24,6.699,14.899,5.981
		c10.322-0.986,18.672-7.964,26.143-14.567c13.613-13.463,24.857-29.059,35.501-44.912c10.526-16.1,20.505-32.553,30.056-49.242
		c10.515-18.458,21.716-36.519,31.631-55.309c9.518-17.332,18.276-35.051,27.891-52.319c9.208-16.432,18.876-32.8,31.363-46.991
		c17.504-20.795,42.79-34.643,69.694-38.406c9.272-1.801,18.801-1.018,28.083-2.744c12.691,8.779,22.306,21.631,28.759,35.554
		c10.301,22.617,11.008,48.417,6.86,72.599c-5.649,33.068-18.812,64.41-34.836,93.726c-8.79,15.843-18.351,31.31-29.273,45.78
		c-26.325,33.089-53.53,65.589-77.294,100.618c-15.585,22.885-27.194,48.449-33.721,75.386c-5.467,4.748-8.865,11.298-13.57,16.732
		c-25.49,31.792-54.655,60.444-85.033,87.53c-31.803,28.041-65.439,54.195-101.797,76.115
		c-24.889,14.653-51.397,28.319-80.37,32.221c-20.087,1.736-40.271-0.193-60.229-2.562c-28.78-3.537-57.357-8.511-85.869-13.774
		c-11.866-2.026-23.56-4.995-35.479-6.635c12.938,13.784,25.414,28.148,35.372,44.301c11.051,17.847,20.173,38.363,18.404,59.833
		c-0.9,11.748-0.675,23.528-1.04,35.297c-106.181-0.011-212.351,0.139-318.522-0.075c-0.375-15.264,1.136-30.581,0.236-45.802
		c-2.926-5.777-7.664-10.408-11.169-15.832c-17.686-24.589-33.936-50.207-48.782-76.597
		c-21.384-38.738-40.003-79.695-48.106-123.449c-9.711-50.872-15.596-102.387-20.88-153.869
		c-4.866-52.115-8.682-104.348-10.344-156.656c-0.986-22.863-0.675-45.759-0.761-68.633c-0.193-41.578,1.308-83.328,8.061-124.425
		c2.765-17.836,8.125-35.126,14.428-51.986c5.52-14.074,12.198-27.783,21.052-40.078c6.56-1.887,12.552-5.209,18.747-7.986
		c4.931-2.272,9.926-4.395,14.76-6.871c1.265-15.414,1.769-30.892,2.101-46.348c0.911-16.4,0.761-32.832,1.05-49.242
		c1.211-39.285,0.268-78.601,1.619-117.886c0.504-43.486,1.747-87.026,6.153-130.32c1.801-15.585,3.977-31.203,8.243-46.327
		c2.251-8.714,6.228-16.882,11.63-24.085c9.272-0.075,18.533-0.011,27.805-0.011c7.535,0.021,15.317,1.265,21.781,5.349
		c5.306,3.012,9.154,7.814,13.366,12.102c4.706,8.071,8.864,16.528,10.997,25.682c5.22,19.658,1.994,40.099,1.661,60.111
		c-3.784,90.714-7.546,181.438-11.169,272.163c-0.397,7.31-0.836,14.631-0.514,21.952c9.786-3.912,19.38-9.133,26.111-17.482
		c6.828-1.533,13.152-4.641,19.594-7.31c6.206-2.819,12.659-5.07,18.822-8.018c1.297-21.02,0.933-42.104,1.811-63.145
		c1.972-84.722,4.813-169.444,10.279-254.026c3.173-46.145,6.656-92.354,13.967-138.059c2.23-13.27,4.781-26.529,8.822-39.37
		c1.929-6.313,5.381-11.962,8.318-17.825c9.926-0.364,19.862-0.096,29.798-0.193c11.769-0.204,23.453,4.373,32.092,12.327
		c3.912,3.494,6.924,7.814,10.419,11.694c7.332,13.409,11.48,28.641,10.794,43.99c-1.05,16.786-1.747,33.593-2.283,50.4
		c-2.122,39.252-3.162,78.559-5.199,117.811c-2.315,63.263-5.51,126.493-7.782,189.756c-0.933,14.374-1.104,28.791-2.047,43.165
		c-0.246,13.859-1.49,27.687-1.597,41.557c-0.547,3.216,3.141,3.977,5.156,5.51c2.851,1.372,5.167,4.438,8.564,4.363
		c7.921-2.069,15.296-5.713,22.971-8.489c8.661-3.494,17.547-6.464,26.004-10.451c2.53-42.693,3.505-85.472,4.052-128.23
		c0.643-17.129,0.622-34.268,0.74-51.397c0.032-32.167,0.954-64.302,1.061-96.47c0.075-20.73,1.008-41.439,1.168-62.169
		c1.318-38.909,2.53-77.873,6.667-116.61c2.315-19.787,4.684-39.746,10.751-58.804C466.421,33.652,469.594,26.106,475.307,20.532z"
		/>
	<path fill="#DDAD85" stroke="#DDAD85" stroke-width="0.5" d="M275.132,69.85c9.926-9.829,23.528-16.1,37.559-16.486
		c-2.937,5.863-6.388,11.512-8.318,17.825c-4.041,12.841-6.592,26.1-8.822,39.37c-7.31,45.705-10.794,91.914-13.967,138.059
		c-5.467,84.583-8.307,169.304-10.279,254.026c-0.879,21.041-0.515,42.125-1.811,63.145c-6.163,2.948-12.616,5.199-18.822,8.018
		c-6.442,2.669-12.766,5.777-19.594,7.31c2.637-4.738,6.12-9.443,6.356-15.071c0.504-9.293,0.182-18.619,1.029-27.901
		c3.794-86.748,7.171-173.517,11.04-260.265c1.318-26.883,1.972-53.777,3.301-80.649c-0.364-11.78,1.479-23.453,1.318-35.211
		c1.79-20.184-0.472-40.742,4.212-60.615C261.134,89.722,266.536,78.382,275.132,69.85z"/>
	<path fill="#DDAD85" stroke="#DDAD85" stroke-width="0.5" d="M640.431,132.18c4.813-3.033,10.301-5.338,16.089-5.381
		c8.586-0.107,17.172,0.054,25.768,0.011c5.777,0.096,11.598-0.386,17.343,0.514c-10.344-0.193-20.72-0.439-31.053,0.129
		c-7.793,10.955-12.648,23.614-16.357,36.455c-5.917,21.727-8.972,44.108-11.008,66.5c-2.283,25.682-3.194,51.461-3.827,77.24
		c-0.74,57.528,0.161,115.056-0.386,172.584c-0.868,27.022-0.729,54.098-3.248,81.035c-9.55,1.469-18.929,3.784-28.491,5.177
		c-0.536-4.073-0.686-8.189-0.204-12.273c1.158-9.593,0.418-19.272,0.707-28.909c-0.032-21.084,0.933-42.168,0.858-63.263
		c-0.44-9.658,0.868-19.251,1.179-28.887c-0.086-27.912,0.922-55.802,0.986-83.714c0.279-14.278,1.469-28.534,1.233-42.822
		c0.075-10.365,0.289-20.73,0.429-31.085c0.707-16.968,0.139-33.957,0.729-50.915c0.975-9.454,0.697-18.962,0.675-28.437
		c-0.075-11.855,2.572-23.592,6.86-34.59C623.227,150.123,630.12,139.19,640.431,132.18z"/>
	<path fill="#DDAD85" stroke="#DDAD85" stroke-width="0.5" d="M109.408,218.199c7.568-9.711,19.005-17.032,31.631-16.947
		c-5.402,7.203-9.379,15.371-11.63,24.085c-4.266,15.124-6.442,30.742-8.243,46.327c-4.405,43.293-5.649,86.833-6.153,130.32
		c-1.351,39.285-0.407,78.601-1.619,117.886c-0.289,16.411-0.139,32.843-1.05,49.242c-0.332,15.457-0.836,30.935-2.101,46.348
		c-4.834,2.476-9.829,4.598-14.76,6.871c-6.195,2.776-12.187,6.099-18.747,7.986c0.332-1.415,0.643-2.819,0.975-4.213
		c2.058-5.542,0.975-11.512,1.222-17.268c0.161-5.488,0.279-10.998-0.429-16.453c-0.482-9.883,0.75-19.712,0.911-29.584
		c-0.075-8.972,1.115-17.9,0.933-26.883c-0.107-7.149,1.018-14.224,1.168-21.363c-0.172-11.823,1.683-23.549,1.265-35.394
		c0.997-12.23,0.247-24.535,1.286-36.744c0.225,4.448,0.482,8.897,0.568,13.356c1.222-6.538,0.933-13.259,0.279-19.851
		c-0.364-8.811,0.547-17.59,0.89-26.39c-0.043-11.073,1.147-22.092,1.061-33.153c1.426-19.305,1.511-38.674,2.487-57.989
		c0.975-9.658,0.043-19.39,1.179-29.027c0.89-7.825,0.129-15.725,1.147-23.539C93.598,248.865,98.861,231.833,109.408,218.199z"/>
	<path fill="#C6B998" stroke="#C6B998" stroke-width="0.5" d="M412.034,454.239c0.139-6.485-0.064-12.991,0.847-19.423
		c1.265,7.192,0.986,14.513,0.579,21.781c-0.397,5.102,0.279,10.279-0.793,15.317C412.334,466.03,412.763,460.113,412.034,454.239z"
		/>
	<path fill="#B7BD9F" stroke="#B7BD9F" stroke-width="0.5" d="M84.069,442.416c0.204-2.176,0.568-4.33,0.847-6.496
		c0.654,6.592,0.943,13.313-0.279,19.851C84.551,451.313,84.294,446.864,84.069,442.416z"/>
	<path fill="#BEBC9A" stroke="#BEBC9A" stroke-width="0.5" d="M77.712,626.105c-0.439-11.223-1.008-22.585,0.793-33.721
		c0.707,5.456,0.59,10.965,0.429,16.453C78.688,614.593,79.77,620.563,77.712,626.105z"/>
	<path fill="#DDAD85" stroke="#DDAD85" stroke-width="0.5" d="M930.73,739.371c16.732-12.316,37.237-19.926,58.128-19.83
		c18.19,0.375,36.358,5.81,51.783,15.457c-9.282,1.726-18.812,0.943-28.083,2.744c-26.904,3.762-52.19,17.611-69.694,38.406
		c-12.488,14.192-22.156,30.56-31.363,46.991c-9.615,17.268-18.372,34.986-27.891,52.319c-9.915,18.79-21.116,36.852-31.631,55.309
		c-9.551,16.689-19.53,33.143-30.056,49.242c-10.644,15.853-21.888,31.449-35.501,44.912c-7.471,6.603-15.821,13.581-26.143,14.567
		c-5.66,0.718-10.687-2.658-14.899-5.981c-6.989-5.627-10.011-15.028-9.315-23.775c0.289-6.26,3.023-12.005,4.084-18.115
		c4.823,0.665,9.861,0.997,14.556-0.622c11.823-3.537,21.556-11.619,30.088-20.248c9.99-10.215,18.458-21.802,26.411-33.636
		c24.707-36.841,43.422-77.197,63.477-116.632c3.119-6.431,6.999-12.498,9.679-19.133
		C893.075,776.641,909.614,754.806,930.73,739.371z"/>
	<path fill="#DDAD85" stroke="#DDAD85" stroke-width="0.5" d="M887.565,1175.393c4.706-5.435,8.103-11.984,13.57-16.732
		c-4.727,18.329-8.768,36.991-16.679,54.291c-7.943,18.201-18.372,35.244-30.667,50.829c-22.37,28.266-49.907,51.879-78.13,74.078
		c-32.392,25.618-66.5,49.671-94.069,80.702c-2.122,2.176-3.816,4.877-3.537,8.071c-0.429,20.344-0.729,40.71-0.3,61.055
		c-62.073,0.129-124.157,0.075-186.229,0.032c0.364-11.769,0.139-23.549,1.04-35.297c1.769-21.47-7.353-41.986-18.404-59.833
		c-9.958-16.153-22.435-30.517-35.372-44.301c11.919,1.64,23.614,4.609,35.479,6.635c28.512,5.263,57.089,10.236,85.869,13.774
		c19.958,2.369,40.142,4.298,60.229,2.562c28.973-3.902,55.481-17.568,80.37-32.221c36.358-21.92,69.994-48.074,101.797-76.115
		C832.91,1235.837,862.076,1207.185,887.565,1175.393z"/>
	<path fill="#FFFFFF" stroke="#FFFFFF" stroke-width="0.5" d="M161.684,1487.966c3.762-0.268,7.546-0.375,11.319-0.322
		c106.17,0.214,212.341,0.064,318.522,0.075c62.073,0.043,124.157,0.096,186.229-0.032c3.312-0.032,6.678-0.15,9.926,0.697
		c-1.104,10.826-0.236,21.759-0.504,32.639c-0.011,18.222,0,36.444-0.011,54.666c0.032,5.145-0.279,10.344,0.536,15.467
		c-3.58,0.161-7.15,0.171-10.719,0.236c-61.484-0.182-122.978,0.193-184.461-0.182c-107.146-0.289-214.281-0.096-321.426-0.129
		c-3.912,0.054-7.825,0.043-11.726-0.161C160.076,1556.599,160.902,1522.277,161.684,1487.966z"/>
	<path fill="#F8D5A7" stroke="#F8D5A7" stroke-width="0.5" d="M171.095,1591.081c107.146,0.032,214.281-0.161,321.426,0.129
		c-0.568,9.497-0.225,19.058,0.279,28.566c-24.728-0.525-49.467-0.086-74.196-0.236c-61.098,0-122.195,0-183.293,0
		c-21.202,0.204-42.425-0.407-63.616,0.332l-0.997-0.15C170.624,1610.172,170.934,1600.621,171.095,1591.081z"/>
	<path fill="#DDAD85" stroke="#DDAD85" stroke-width="0.5" d="M492.8,1619.776c-0.504-9.508-0.847-19.069-0.279-28.566
		c61.483,0.375,122.977,0,184.461,0.182c0.182,9.336,0.321,18.704-0.161,28.041c-49.982,0.054-99.975,0-149.957,0.021
		c-10.965,0.129-21.952-0.343-32.907,0.354L492.8,1619.776z"/>
</g>
</svg>
